# xmcd
#
# Track frame offsets:
#	150
#	17075
#	35465
#	55930
#	73147
#	91631
#	109438
#	124609
#	142878
#	159562
#	178954
#	200271
#	217576
#	237767
#	259817
#	275772
#	298122
#	315637
#	333212
#
# Disc length: 4667 seconds
#
# Revision: 0
# Processed by: cddbd v1.5.1PL0 Copyright (c) Steve Scherf et al.
# Submitted via: dBpowerAMP V4.0
#
DISCID=15123913
DTITLE=Jennifer Lopez - Rebirth
DYEAR=1900
DGENRE=Blues
TTITLE0=Get Right
TTITLE1=Step Into My World
TTITLE2=Hold You Down (feat Fat Joe)
TTITLE3=Whatever You Wanna Do
TTITLE4=Cherry Pie
TTITLE5=I Got You
TTITLE6=Still Around
TTITLE7=Ryde Or Die
TTITLE8=I, Love
TTITLE9=He'll BE Back
TTITLE10=(Can't Believe) This Is Me
TTITLE11=Ger Right (feat Fabolous)
TTITLE12=baby I love you
TTITLE13=come over
TTITLE14=Play
TTITLE15=I'm real
TTITLE16=That's the way
TTITLE17=dance with me
TTITLE18=I'   m gonna be alright
EXTD=hey~
EXTT0=
EXTT1=
EXTT2=
EXTT3=
EXTT4=
EXTT5=
EXTT6=
EXTT7=
EXTT8=
EXTT9=
EXTT10=
EXTT11=
EXTT12=
EXTT13=
EXTT14=
EXTT15=
EXTT16=
EXTT17=
EXTT18=
PLAYORDER=
